<svg id="Design" xmlns="http://www.w3.org/2000/svg" width="3556" height="2000" viewBox="0 0 3556 2000">
  <defs>
    <style>
      .cls-1 {
        fill: #ccc;
      }

      .cls-1, .cls-2, .cls-3 {
        fill-rule: evenodd;
      }

      .cls-2 {
        fill: #92d2c6;
      }

      .cls-3 {
        fill: #32356b;
      }
    </style>
  </defs>
  <path id="Shape" class="cls-1" d="M3245.96,562.159a6.246,6.246,0,0,1-8.83-8.835L3746,44.535V-170L2386.01-64.939l-381.87,381.81a6.249,6.249,0,0,1-8.84-8.836L2366.85-63.46,1589-3.369,1698.25,105.86c75.75,75.736,198.56,75.732,274.3-.01l62.58-62.578a33.833,33.833,0,0,1,47.84,0l0.62,0.619a34.863,34.863,0,0,1,.13,49.393c-20.97,20.968-165.97,165.94-198.59,198.552a176.857,176.857,0,0,0-.01,250.156h0a176.941,176.941,0,0,0,250.2,0l606.1-606,133.45,18.181-220.64,220.6c-96.31,96.291-96.31,252.409,0,348.7h0c96.31,96.291,252.45,96.291,348.76,0l337.39-337.331a37.524,37.524,0,1,1,53.07,53.063L2893.81,738.759a139.356,139.356,0,0,0,0,197.091h0a139.412,139.412,0,0,0,197.13,0L3437.05,589.8a40.2,40.2,0,0,1,56.86,56.854l-6.06,6.058c-114.94,114.925-114.94,301.255,0,416.177L3746,1327V62.205Zm-669.41-602.3L2299.12,237.255a6.249,6.249,0,1,1-8.84-8.836L2567.72-48.972a6.239,6.239,0,0,1,8.83,0A6.247,6.247,0,0,1,2576.55-40.137Zm976.92,589.176a34.674,34.674,0,1,1,34.68-34.674A34.679,34.679,0,0,1,3553.47,549.039ZM2498.5,441.066a45.434,45.434,0,1,1-45.43,45.434A45.432,45.432,0,0,1,2498.5,441.066Z"/>
  <path id="Shape-2" data-name="Shape" class="cls-2" d="M366.929,1695.4a4.23,4.23,0,1,0-5.984-5.98L16.315,2034H-129l71.163-920.92L200.782,854.5a4.231,4.231,0,1,0-5.984-5.984l-251.633,251.6,40.7-526.726L57.854,647.37a131.327,131.327,0,0,1-.007,185.747L15.46,875.492a22.9,22.9,0,0,0,0,32.391l0.419,0.418a23.617,23.617,0,0,0,33.457.094c14.2-14.2,112.4-112.391,134.489-134.479a119.824,119.824,0,0,1,169.444-.005h0a119.787,119.787,0,0,1,0,169.42L-57.209,1353.75l12.315,90.37,149.427-149.41a167.036,167.036,0,0,1,236.192,0h0a166.975,166.975,0,0,1,0,236.16L112.233,1759.33a25.414,25.414,0,0,0,35.943,35.94l338.373-338.33a94.408,94.408,0,0,1,133.5,0h0a94.387,94.387,0,0,1,0,133.49l-234.4,234.36a27.231,27.231,0,1,0,38.51,38.51l4.1-4.11c77.844-77.83,204.055-77.83,281.9,0L885,2034H28.284ZM-41.037,1242.11l187.892-187.86a4.234,4.234,0,0,0-5.985-5.99L-47.022,1236.13a4.225,4.225,0,0,0,0,5.98A4.236,4.236,0,0,0-41.037,1242.11Zm399.079,661.52a23.487,23.487,0,1,0-23.486,23.48A23.481,23.481,0,0,0,358.042,1903.63Zm-73.136-714.37a30.775,30.775,0,1,0,30.775-30.77A30.766,30.766,0,0,0,284.906,1189.26Z"/>
  <path id="Shape-3" data-name="Shape" class="cls-3" d="M3030.51,1708.54h0a18.783,18.783,0,0,1,26.54,0l56.49,56.45a18.758,18.758,0,0,1,0,26.52h0a18.783,18.783,0,0,1-26.54,0l-56.49-56.46A18.746,18.746,0,0,1,3030.51,1708.54Zm83.03,0h0a18.746,18.746,0,0,1,0,26.51l-56.49,56.46a18.783,18.783,0,0,1-26.54,0h0a18.758,18.758,0,0,1,0-26.52l56.49-56.45A18.783,18.783,0,0,1,3113.54,1708.54Zm227.09,6.59a13.145,13.145,0,1,1-13.15-13.13A13.145,13.145,0,0,1,3340.63,1715.13Zm0,68.63a13.145,13.145,0,1,1-13.15-13.14A13.143,13.143,0,0,1,3340.63,1783.76Zm66.87-68.63a13.14,13.14,0,1,1-13.14-13.13A13.136,13.136,0,0,1,3407.5,1715.13Zm0,68.63a13.14,13.14,0,1,1-13.14-13.14A13.134,13.134,0,0,1,3407.5,1783.76Zm-202.25-68.63a13.145,13.145,0,1,1-13.14-13.13A13.136,13.136,0,0,1,3205.25,1715.13Zm0,68.63a13.145,13.145,0,1,1-13.14-13.14A13.134,13.134,0,0,1,3205.25,1783.76Zm66.88-68.63a13.145,13.145,0,1,1-13.15-13.13A13.145,13.145,0,0,1,3272.13,1715.13Zm0,68.63a13.145,13.145,0,1,1-13.15-13.14A13.143,13.143,0,0,1,3272.13,1783.76Zm338.99-68.63a13.14,13.14,0,1,1-13.14-13.13A13.136,13.136,0,0,1,3611.12,1715.13Zm0,68.63a13.14,13.14,0,1,1-13.14-13.14A13.134,13.134,0,0,1,3611.12,1783.76Zm66.88-68.63a13.145,13.145,0,1,1-13.14-13.13A13.136,13.136,0,0,1,3678,1715.13Zm0,68.63a13.145,13.145,0,1,1-13.14-13.14A13.134,13.134,0,0,1,3678,1783.76Zm-202.25-68.63A13.145,13.145,0,1,1,3462.6,1702,13.145,13.145,0,0,1,3475.75,1715.13Zm0,68.63a13.145,13.145,0,1,1-13.15-13.14A13.143,13.143,0,0,1,3475.75,1783.76Zm66.87-68.63a13.14,13.14,0,1,1-13.14-13.13A13.136,13.136,0,0,1,3542.62,1715.13Zm0,68.63a13.14,13.14,0,1,1-13.14-13.14A13.134,13.134,0,0,1,3542.62,1783.76Z"/>
</svg>
