<svg id="visual" viewBox="0 0 1920 929" width="1920" height="929" xmlns="http://www.w3.org/2000/svg" xmlns:xlink="http://www.w3.org/1999/xlink" version="1.1"><rect x="0" y="0" width="1920" height="929" fill="#FFFFFF"></rect><defs><linearGradient id="grad1_0" x1="51.6%" y1="0%" x2="100%" y2="100%"><stop offset="8.665231431646934%" stop-color="#234257" stop-opacity="1"></stop><stop offset="91.33476856835307%" stop-color="#234257" stop-opacity="1"></stop></linearGradient></defs><defs><linearGradient id="grad1_1" x1="51.6%" y1="0%" x2="100%" y2="100%"><stop offset="8.665231431646934%" stop-color="#234257" stop-opacity="1"></stop><stop offset="91.33476856835307%" stop-color="#8d9ba7" stop-opacity="1"></stop></linearGradient></defs><defs><linearGradient id="grad1_2" x1="51.6%" y1="0%" x2="100%" y2="100%"><stop offset="8.665231431646934%" stop-color="#ffffff" stop-opacity="1"></stop><stop offset="91.33476856835307%" stop-color="#8d9ba7" stop-opacity="1"></stop></linearGradient></defs><defs><linearGradient id="grad2_0" x1="0%" y1="0%" x2="48.4%" y2="100%"><stop offset="8.665231431646934%" stop-color="#234257" stop-opacity="1"></stop><stop offset="91.33476856835307%" stop-color="#234257" stop-opacity="1"></stop></linearGradient></defs><defs><linearGradient id="grad2_1" x1="0%" y1="0%" x2="48.4%" y2="100%"><stop offset="8.665231431646934%" stop-color="#8d9ba7" stop-opacity="1"></stop><stop offset="91.33476856835307%" stop-color="#234257" stop-opacity="1"></stop></linearGradient></defs><defs><linearGradient id="grad2_2" x1="0%" y1="0%" x2="48.4%" y2="100%"><stop offset="8.665231431646934%" stop-color="#8d9ba7" stop-opacity="1"></stop><stop offset="91.33476856835307%" stop-color="#ffffff" stop-opacity="1"></stop></linearGradient></defs><g transform="translate(1920, 0)"><path d="M0 650.3C-78.2 624.8 -156.3 599.2 -236.9 571.9C-317.4 544.5 -400.4 515.3 -459.8 459.8C-519.3 404.3 -555.1 322.5 -583 241.5C-610.8 160.4 -630.5 80.2 -650.3 0L0 0Z" fill="#c5ccd2"></path><path d="M0 433.5C-52.1 416.5 -104.2 399.5 -157.9 381.3C-211.6 363 -266.9 343.6 -306.6 306.6C-346.2 269.6 -370.1 215 -388.6 161C-407.2 107 -420.4 53.5 -433.5 0L0 0Z" fill="#586d7e"></path><path d="M0 216.8C-26.1 208.3 -52.1 199.7 -79 190.6C-105.8 181.5 -133.5 171.8 -153.3 153.3C-173.1 134.8 -185 107.5 -194.3 80.5C-203.6 53.5 -210.2 26.7 -216.8 0L0 0Z" fill="#234257"></path></g><g transform="translate(0, 929)"><path d="M0 -650.3C75.2 -621.9 150.3 -593.5 235.4 -568.2C320.4 -542.9 415.3 -520.7 459.8 -459.8C504.4 -398.9 498.6 -299.3 522 -216.2C545.3 -133.1 597.8 -66.6 650.3 0L0 0Z" fill="#c5ccd2"></path><path d="M0 -433.5C50.1 -414.6 100.2 -395.7 156.9 -378.8C213.6 -361.9 276.8 -347.2 306.6 -306.6C336.3 -266 332.4 -199.5 348 -144.1C363.6 -88.7 398.5 -44.4 433.5 0L0 0Z" fill="#586d7e"></path><path d="M0 -216.8C25.1 -207.3 50.1 -197.8 78.5 -189.4C106.8 -181 138.4 -173.6 153.3 -153.3C168.1 -133 166.2 -99.8 174 -72.1C181.8 -44.4 199.3 -22.2 216.8 0L0 0Z" fill="#234257"></path></g></svg>