<?xml version="1.0" encoding="UTF-8"?>
<svg id="Capa_1" data-name="Capa 1" xmlns="http://www.w3.org/2000/svg" viewBox="0 0 451.25 174.91">
  <defs>
    <style>
      .cls-1 {
        isolation: isolate;
      }

      .cls-2 {
        fill: #1d1d1b;
      }
    </style>
  </defs>
  <g class="cls-1">
    <path class="cls-2" d="M116.42,118.92l3.39,.73-11.92,38.19H.01v-3.84H5.25c5.89,0,10.1-1.94,12.64-5.81,1.44-2.21,2.16-7.33,2.16-15.36V42.02c0-8.79-.96-14.29-2.88-16.5-2.67-3.04-6.64-4.57-11.92-4.57H.01v-3.84H63.1v3.84c-7.4-.07-12.59,.62-15.57,2.08-2.98,1.45-5.02,3.29-6.11,5.5-1.1,2.21-1.64,7.51-1.64,15.88v88.42c0,5.74,.55,9.69,1.64,11.83,.82,1.45,2.09,2.53,3.8,3.22,1.71,.69,7.05,1.04,16.03,1.04h10.17c10.69,0,18.19-.79,22.5-2.39,4.32-1.59,8.25-4.41,11.82-8.46,3.56-4.05,7.12-10.43,10.69-19.15Z"/>
    <path class="cls-2" d="M242.23,67.24h43.15v3.84c-5.96,.48-10.36,1.82-13.2,4-2.84,2.18-7.28,8.77-13.31,19.77-6.03,11-12.81,21.28-20.34,30.82,6.1,7.2,11.54,12.23,16.34,15.1,4.79,2.87,9.62,4.31,14.49,4.31s8.73-1.3,12.02-3.89c3.29-2.59,5.62-6.42,6.99-11.47l3.8,2.8c-2.54,9.76-6.61,16.95-12.23,21.59-5.62,4.63-12.16,6.95-19.62,6.95-5.62,0-11.32-1.54-17.11-4.62-5.79-3.08-12.11-8.29-18.96-15.62-8.49,7.61-16.15,12.89-22.96,15.83-6.82,2.94-14.09,4.41-21.83,4.41-11.3,0-20.28-3.04-26.92-9.13-6.65-6.09-9.97-13.35-9.97-21.79s2.98-16.73,8.94-25.06c5.96-8.34,17.16-16.97,33.6-25.89-3.22-7.2-5.41-13.09-6.58-17.7-1.17-4.6-1.75-9.01-1.75-13.23,0-11.83,4.32-20.86,12.95-27.09,6.71-4.84,14.35-7.27,22.91-7.27s14.8,2.44,19.93,7.32,7.71,10.88,7.71,18.01-2.48,13.77-7.45,19.3c-4.97,5.54-13.75,11.59-26.35,18.16,8.7,15.64,17.77,29.96,27.23,42.97,12.06-14.53,18.08-26.78,18.08-36.74,0-3.18-1.03-6.02-3.08-8.51-1.51-1.87-3.67-2.97-6.47-3.32v-3.84Zm-23.32,67.56c-9.04-12.45-15.31-21.55-18.8-27.3-3.49-5.74-7.33-12.87-11.51-21.38-8.22,4.77-14.4,10.03-18.55,15.78-4.15,5.74-6.22,11.97-6.22,18.68,0,7.4,2.36,13.91,7.09,19.51s11.1,8.41,19.11,8.41c4.32,0,8.48-.86,12.48-2.59,4.01-1.73,9.47-5.43,16.39-11.1Zm-15.93-64.87c8.49-4.08,14.85-8.72,19.06-13.91,4.21-5.19,6.32-10.97,6.32-17.33,0-4.98-1.52-9.1-4.57-12.35-3.05-3.25-6.83-4.88-11.35-4.88-5.96,0-10.46,2.09-13.51,6.28-3.05,4.19-4.57,8.29-4.57,12.3,0,3.39,.58,7.18,1.75,11.36,1.16,4.19,3.46,10.36,6.88,18.53Z"/>
    <path class="cls-2" d="M451.25,157.84h-37.19l-47.16-65.8c-3.49,.14-6.34,.21-8.53,.21-.89,0-1.85-.02-2.88-.05-1.03-.03-2.09-.09-3.19-.16v40.89c0,8.86,.96,14.36,2.88,16.5,2.6,3.05,6.51,4.57,11.71,4.57h5.45v3.84h-59.7v-3.84h5.24c5.89,0,10.1-1.94,12.64-5.81,1.44-2.14,2.16-7.23,2.16-15.26V42.02c0-8.86-.96-14.36-2.88-16.5-2.67-3.04-6.64-4.57-11.92-4.57h-5.24v-3.84h50.76c14.8,0,25.7,1.09,32.72,3.27,7.02,2.18,12.98,6.19,17.88,12.04,4.9,5.85,7.35,12.82,7.35,20.91,0,8.65-2.79,16.16-8.37,22.52-5.58,6.37-14.23,10.86-25.94,13.49l28.77,40.37c6.58,9.27,12.23,15.43,16.95,18.47,4.73,3.05,10.89,4.98,18.49,5.81v3.84Zm-98.95-72.34c1.3,0,2.43,.02,3.39,.05,.96,.04,1.75,.05,2.36,.05,13.29,0,23.31-2.91,30.05-8.72,6.75-5.81,10.12-13.21,10.12-22.21s-2.72-15.93-8.17-21.43-12.66-8.25-21.63-8.25c-3.97,0-9.35,.66-16.13,1.97v58.53Z"/>
  </g>
  <rect class="cls-2" width="450.85" height="2.83"/>
  <rect class="cls-2" y="172.08" width="450.85" height="2.83"/>
</svg>