<svg xmlns="http://www.w3.org/2000/svg" width="385.281" height="554.969" viewBox="0 0 385.281 554.969">
  <defs>
    <style>
      .cls-1 {
        fill: #92d2c6;
        fill-rule: evenodd;
      }
    </style>
  </defs>
  <path id="Shape" class="cls-1" d="M796.434,809.347a1.608,1.608,0,0,0-2.274-2.274L663.214,938H608l27.039-349.912,98.266-98.252a1.608,1.608,0,0,0-2.274-2.274l-95.611,95.6,15.465-200.135L679,411.135a49.9,49.9,0,0,1,0,70.576l-16.106,16.1a8.7,8.7,0,0,0,0,12.308l0.159,0.159a8.973,8.973,0,0,0,12.712.035l51.1-51.1a45.528,45.528,0,0,1,64.382,0h0a45.513,45.513,0,0,1,0,64.373L635.278,679.533l4.679,34.336L696.733,657.1a63.464,63.464,0,0,1,89.744,0h0a63.443,63.443,0,0,1,0,89.732l-86.818,86.807a9.656,9.656,0,1,0,13.657,13.655L841.885,718.742a35.872,35.872,0,0,1,50.725,0h0a35.86,35.86,0,0,1,0,50.718l-89.062,89.05a10.346,10.346,0,0,0,14.632,14.631l1.56-1.559a75.746,75.746,0,0,1,107.111,0L993.279,938H667.762ZM641.422,637.114l71.392-71.382a1.608,1.608,0,0,0-2.274-2.273L639.149,634.84A1.608,1.608,0,1,0,641.422,637.114ZM793.057,888.465a8.924,8.924,0,1,0-8.924,8.923A8.923,8.923,0,0,0,793.057,888.465Zm-16.093-283.12a11.69,11.69,0,1,1-11.7,11.689A11.692,11.692,0,0,1,776.964,605.345Z" transform="translate(-608 -383.031)"/>
</svg>
