<svg xmlns="http://www.w3.org/2000/svg" width="621.438" height="387" viewBox="0 0 621.438 387">
  <defs>
    <style>
      .cls-1 {
        fill: #ccc;
        fill-rule: evenodd;
      }
    </style>
  </defs>
  <path id="Shape" class="cls-1" d="M1232.7,161.688a1.843,1.843,0,0,1-2.61-2.6L1380,9.2V-54L979.365-23.046,866.87,89.43a1.841,1.841,0,0,1-2.6-2.6L973.722-22.61,744.577-4.909,776.76,27.269a57.144,57.144,0,0,0,80.807,0L876,8.831a9.964,9.964,0,0,1,14.091,0l0.182,0.182a10.269,10.269,0,0,1,.041,14.551l-58.5,58.491a52.1,52.1,0,0,0,0,73.693h0a52.125,52.125,0,0,0,73.705,0L1084.06-22.773l39.32,5.356-65,64.987a72.629,72.629,0,0,0,0,102.723h0a72.657,72.657,0,0,0,102.74,0l99.39-99.373a11.053,11.053,0,0,1,15.63,15.632L1128.96,213.712a41.042,41.042,0,0,0,0,58.06h0a41.066,41.066,0,0,0,58.07,0l101.96-101.942a11.843,11.843,0,1,1,16.75,16.748l-1.79,1.785a86.684,86.684,0,0,0,0,122.6L1380,387V14.409ZM1035.5-15.74L953.767,65.976a1.84,1.84,0,1,1-2.6-2.6l81.726-81.716a1.849,1.849,0,0,1,2.61,0A1.838,1.838,0,0,1,1035.5-15.74Zm287.78,173.563a10.215,10.215,0,1,1,10.22-10.214A10.211,10.211,0,0,1,1323.28,157.823ZM1012.5,126.015A13.385,13.385,0,1,1,999.118,139.4,13.385,13.385,0,0,1,1012.5,126.015Z" transform="translate(-744.562)"/>
</svg>
