<svg xmlns="http://www.w3.org/2000/svg" width="530.97" height="95" viewBox="0 0 530.97 95">
  <defs>
    <style>
      .cls-1 {
        fill: #234257;
        fill-rule: evenodd;
      }
    </style>
  </defs>
  <path id="Shape" class="cls-1" d="M3030.51,1708.54h0a18.783,18.783,0,0,1,26.54,0l56.49,56.45a18.758,18.758,0,0,1,0,26.52h0a18.783,18.783,0,0,1-26.54,0l-56.49-56.46A18.746,18.746,0,0,1,3030.51,1708.54Zm83.03,0h0a18.746,18.746,0,0,1,0,26.51l-56.49,56.46a18.783,18.783,0,0,1-26.54,0h0a18.758,18.758,0,0,1,0-26.52l56.49-56.45A18.783,18.783,0,0,1,3113.54,1708.54Zm227.09,6.59a13.145,13.145,0,1,1-13.15-13.13A13.145,13.145,0,0,1,3340.63,1715.13Zm0,68.63a13.145,13.145,0,1,1-13.15-13.14A13.143,13.143,0,0,1,3340.63,1783.76Zm66.87-68.63a13.14,13.14,0,1,1-13.14-13.13A13.136,13.136,0,0,1,3407.5,1715.13Zm0,68.63a13.14,13.14,0,1,1-13.14-13.14A13.134,13.134,0,0,1,3407.5,1783.76Zm-202.25-68.63a13.145,13.145,0,1,1-13.14-13.13A13.136,13.136,0,0,1,3205.25,1715.13Zm0,68.63a13.145,13.145,0,1,1-13.14-13.14A13.134,13.134,0,0,1,3205.25,1783.76Zm66.88-68.63a13.145,13.145,0,1,1-13.15-13.13A13.145,13.145,0,0,1,3272.13,1715.13Zm0,68.63a13.145,13.145,0,1,1-13.15-13.14A13.143,13.143,0,0,1,3272.13,1783.76Zm338.99-68.63a13.14,13.14,0,1,1-13.14-13.13A13.136,13.136,0,0,1,3611.12,1715.13Zm0,68.63a13.14,13.14,0,1,1-13.14-13.14A13.134,13.134,0,0,1,3611.12,1783.76Zm66.88-68.63a13.145,13.145,0,1,1-13.14-13.13A13.136,13.136,0,0,1,3678,1715.13Zm0,68.63a13.145,13.145,0,1,1-13.14-13.14A13.134,13.134,0,0,1,3678,1783.76Zm-202.25-68.63A13.145,13.145,0,1,1,3462.6,1702,13.145,13.145,0,0,1,3475.75,1715.13Zm0,68.63a13.145,13.145,0,1,1-13.15-13.14A13.143,13.143,0,0,1,3475.75,1783.76Zm66.87-68.63a13.14,13.14,0,1,1-13.14-13.13A13.136,13.136,0,0,1,3542.62,1715.13Zm0,68.63a13.14,13.14,0,1,1-13.14-13.14A13.134,13.134,0,0,1,3542.62,1783.76Z" transform="translate(-3025.03 -1702)"/>
</svg>
