<svg id="visual" viewBox="0 0 1920 929" width="1920" height="929" xmlns="http://www.w3.org/2000/svg" xmlns:xlink="http://www.w3.org/1999/xlink" version="1.1"><path d="M0 57L29.2 64.7C58.3 72.3 116.7 87.7 174.8 92.3C233 97 291 91 349.2 88C407.3 85 465.7 85 523.8 80.3C582 75.7 640 66.3 698.2 64.7C756.3 63 814.7 69 872.8 73.7C931 78.3 989 81.7 1047.2 81.7C1105.3 81.7 1163.7 78.3 1221.8 78.3C1280 78.3 1338 81.7 1396.2 84.8C1454.3 88 1512.7 91 1570.8 86.3C1629 81.7 1687 69.3 1745.2 63.2C1803.3 57 1861.7 57 1890.8 57L1920 57L1920 0L1890.8 0C1861.7 0 1803.3 0 1745.2 0C1687 0 1629 0 1570.8 0C1512.7 0 1454.3 0 1396.2 0C1338 0 1280 0 1221.8 0C1163.7 0 1105.3 0 1047.2 0C989 0 931 0 872.8 0C814.7 0 756.3 0 698.2 0C640 0 582 0 523.8 0C465.7 0 407.3 0 349.2 0C291 0 233 0 174.8 0C116.7 0 58.3 0 29.2 0L0 0Z" fill="#234257"></path><path d="M0 261L29.2 271.8C58.3 282.7 116.7 304.3 174.8 307.5C233 310.7 291 295.3 349.2 279.8C407.3 264.3 465.7 248.7 523.8 242.5C582 236.3 640 239.7 698.2 241.3C756.3 243 814.7 243 872.8 261.5C931 280 989 317 1047.2 321.5C1105.3 326 1163.7 298 1221.8 282.5C1280 267 1338 264 1396.2 271.8C1454.3 279.7 1512.7 298.3 1570.8 303C1629 307.7 1687 298.3 1745.2 282.8C1803.3 267.3 1861.7 245.7 1890.8 234.8L1920 224L1920 55L1890.8 55C1861.7 55 1803.3 55 1745.2 61.2C1687 67.3 1629 79.7 1570.8 84.3C1512.7 89 1454.3 86 1396.2 82.8C1338 79.7 1280 76.3 1221.8 76.3C1163.7 76.3 1105.3 79.7 1047.2 79.7C989 79.7 931 76.3 872.8 71.7C814.7 67 756.3 61 698.2 62.7C640 64.3 582 73.7 523.8 78.3C465.7 83 407.3 83 349.2 86C291 89 233 95 174.8 90.3C116.7 85.7 58.3 70.3 29.2 62.7L0 55Z" fill="#425c70"></path><path d="M0 317L29.2 326.3C58.3 335.7 116.7 354.3 174.8 359C233 363.7 291 354.3 349.2 343.5C407.3 332.7 465.7 320.3 523.8 312.5C582 304.7 640 301.3 698.2 304.3C756.3 307.3 814.7 316.7 872.8 338.3C931 360 989 394 1047.2 398.7C1105.3 403.3 1163.7 378.7 1221.8 358.7C1280 338.7 1338 323.3 1396.2 329.5C1454.3 335.7 1512.7 363.3 1570.8 371C1629 378.7 1687 366.3 1745.2 347.8C1803.3 329.3 1861.7 304.7 1890.8 292.3L1920 280L1920 222L1890.8 232.8C1861.7 243.7 1803.3 265.3 1745.2 280.8C1687 296.3 1629 305.7 1570.8 301C1512.7 296.3 1454.3 277.7 1396.2 269.8C1338 262 1280 265 1221.8 280.5C1163.7 296 1105.3 324 1047.2 319.5C989 315 931 278 872.8 259.5C814.7 241 756.3 241 698.2 239.3C640 237.7 582 234.3 523.8 240.5C465.7 246.7 407.3 262.3 349.2 277.8C291 293.3 233 308.7 174.8 305.5C116.7 302.3 58.3 280.7 29.2 269.8L0 259Z" fill="#62788b"></path><path d="M0 354L29.2 366.3C58.3 378.7 116.7 403.3 174.8 411C233 418.7 291 409.3 349.2 395.5C407.3 381.7 465.7 363.3 523.8 355.7C582 348 640 351 698.2 355.7C756.3 360.3 814.7 366.7 872.8 385.3C931 404 989 435 1047.2 441.2C1105.3 447.3 1163.7 428.7 1221.8 413.2C1280 397.7 1338 385.3 1396.2 388.3C1454.3 391.3 1512.7 409.7 1570.8 412.7C1629 415.7 1687 403.3 1745.2 387.8C1803.3 372.3 1861.7 353.7 1890.8 344.3L1920 335L1920 278L1890.8 290.3C1861.7 302.7 1803.3 327.3 1745.2 345.8C1687 364.3 1629 376.7 1570.8 369C1512.7 361.3 1454.3 333.7 1396.2 327.5C1338 321.3 1280 336.7 1221.8 356.7C1163.7 376.7 1105.3 401.3 1047.2 396.7C989 392 931 358 872.8 336.3C814.7 314.7 756.3 305.3 698.2 302.3C640 299.3 582 302.7 523.8 310.5C465.7 318.3 407.3 330.7 349.2 341.5C291 352.3 233 361.7 174.8 357C116.7 352.3 58.3 333.7 29.2 324.3L0 315Z" fill="#8295a6"></path><path d="M0 466L29.2 476.8C58.3 487.7 116.7 509.3 174.8 512.3C233 515.3 291 499.7 349.2 484.2C407.3 468.7 465.7 453.3 523.8 442.5C582 431.7 640 425.3 698.2 428.3C756.3 431.3 814.7 443.7 872.8 466.8C931 490 989 524 1047.2 533.3C1105.3 542.7 1163.7 527.3 1221.8 515C1280 502.7 1338 493.3 1396.2 496.5C1454.3 499.7 1512.7 515.3 1570.8 515.3C1629 515.3 1687 499.7 1745.2 484.2C1803.3 468.7 1861.7 453.3 1890.8 445.7L1920 438L1920 333L1890.8 342.3C1861.7 351.7 1803.3 370.3 1745.2 385.8C1687 401.3 1629 413.7 1570.8 410.7C1512.7 407.7 1454.3 389.3 1396.2 386.3C1338 383.3 1280 395.7 1221.8 411.2C1163.7 426.7 1105.3 445.3 1047.2 439.2C989 433 931 402 872.8 383.3C814.7 364.7 756.3 358.3 698.2 353.7C640 349 582 346 523.8 353.7C465.7 361.3 407.3 379.7 349.2 393.5C291 407.3 233 416.7 174.8 409C116.7 401.3 58.3 376.7 29.2 364.3L0 352Z" fill="#889bac"></path><path d="M0 531L29.2 541.8C58.3 552.7 116.7 574.3 174.8 574.3C233 574.3 291 552.7 349.2 537.2C407.3 521.7 465.7 512.3 523.8 506C582 499.7 640 496.3 698.2 499.3C756.3 502.3 814.7 511.7 872.8 530.3C931 549 989 577 1047.2 583.2C1105.3 589.3 1163.7 573.7 1221.8 565.8C1280 558 1338 558 1396.2 561.2C1454.3 564.3 1512.7 570.7 1570.8 570.7C1629 570.7 1687 564.3 1745.2 553.5C1803.3 542.7 1861.7 527.3 1890.8 519.7L1920 512L1920 436L1890.8 443.7C1861.7 451.3 1803.3 466.7 1745.2 482.2C1687 497.7 1629 513.3 1570.8 513.3C1512.7 513.3 1454.3 497.7 1396.2 494.5C1338 491.3 1280 500.7 1221.8 513C1163.7 525.3 1105.3 540.7 1047.2 531.3C989 522 931 488 872.8 464.8C814.7 441.7 756.3 429.3 698.2 426.3C640 423.3 582 429.7 523.8 440.5C465.7 451.3 407.3 466.7 349.2 482.2C291 497.7 233 513.3 174.8 510.3C116.7 507.3 58.3 485.7 29.2 474.8L0 464Z" fill="#8295a6"></path><path d="M0 781L29.2 778C58.3 775 116.7 769 174.8 769C233 769 291 775 349.2 767.2C407.3 759.3 465.7 737.7 523.8 728.5C582 719.3 640 722.7 698.2 732C756.3 741.3 814.7 756.7 872.8 762.8C931 769 989 766 1047.2 764.5C1105.3 763 1163.7 763 1221.8 769.2C1280 775.3 1338 787.7 1396.2 789.2C1454.3 790.7 1512.7 781.3 1570.8 778.2C1629 775 1687 778 1745.2 770.3C1803.3 762.7 1861.7 744.3 1890.8 735.2L1920 726L1920 510L1890.8 517.7C1861.7 525.3 1803.3 540.7 1745.2 551.5C1687 562.3 1629 568.7 1570.8 568.7C1512.7 568.7 1454.3 562.3 1396.2 559.2C1338 556 1280 556 1221.8 563.8C1163.7 571.7 1105.3 587.3 1047.2 581.2C989 575 931 547 872.8 528.3C814.7 509.7 756.3 500.3 698.2 497.3C640 494.3 582 497.7 523.8 504C465.7 510.3 407.3 519.7 349.2 535.2C291 550.7 233 572.3 174.8 572.3C116.7 572.3 58.3 550.7 29.2 539.8L0 529Z" fill="#62788b"></path><path d="M0 893L29.2 891.5C58.3 890 116.7 887 174.8 885.5C233 884 291 884 349.2 882.3C407.3 880.7 465.7 877.3 523.8 875.7C582 874 640 874 698.2 872.5C756.3 871 814.7 868 872.8 869.7C931 871.3 989 877.7 1047.2 877.7C1105.3 877.7 1163.7 871.3 1221.8 872.8C1280 874.3 1338 883.7 1396.2 883.7C1454.3 883.7 1512.7 874.3 1570.8 872.8C1629 871.3 1687 877.7 1745.2 877.7C1803.3 877.7 1861.7 871.3 1890.8 868.2L1920 865L1920 724L1890.8 733.2C1861.7 742.3 1803.3 760.7 1745.2 768.3C1687 776 1629 773 1570.8 776.2C1512.7 779.3 1454.3 788.7 1396.2 787.2C1338 785.7 1280 773.3 1221.8 767.2C1163.7 761 1105.3 761 1047.2 762.5C989 764 931 767 872.8 760.8C814.7 754.7 756.3 739.3 698.2 730C640 720.7 582 717.3 523.8 726.5C465.7 735.7 407.3 757.3 349.2 765.2C291 773 233 767 174.8 767C116.7 767 58.3 773 29.2 776L0 779Z" fill="#425c70"></path><path d="M0 930L29.2 930C58.3 930 116.7 930 174.8 930C233 930 291 930 349.2 930C407.3 930 465.7 930 523.8 930C582 930 640 930 698.2 930C756.3 930 814.7 930 872.8 930C931 930 989 930 1047.2 930C1105.3 930 1163.7 930 1221.8 930C1280 930 1338 930 1396.2 930C1454.3 930 1512.7 930 1570.8 930C1629 930 1687 930 1745.2 930C1803.3 930 1861.7 930 1890.8 930L1920 930L1920 863L1890.8 866.2C1861.7 869.3 1803.3 875.7 1745.2 875.7C1687 875.7 1629 869.3 1570.8 870.8C1512.7 872.3 1454.3 881.7 1396.2 881.7C1338 881.7 1280 872.3 1221.8 870.8C1163.7 869.3 1105.3 875.7 1047.2 875.7C989 875.7 931 869.3 872.8 867.7C814.7 866 756.3 869 698.2 870.5C640 872 582 872 523.8 873.7C465.7 875.3 407.3 878.7 349.2 880.3C291 882 233 882 174.8 883.5C116.7 885 58.3 888 29.2 889.5L0 891Z" fill="#234257"></path></svg>